<svg width="494" height="493" viewBox="0 0 494 493" fill="none" xmlns="http://www.w3.org/2000/svg">
<path d="M331.467 391.935C327.77 400.973 302.956 399.823 300.08 407.547C297.204 415.27 322.511 414.531 321.69 424.226C320.868 433.922 305.585 435.401 278.141 436.962C250.698 438.523 244.617 445.754 217.174 454.71C189.73 463.666 177.651 452.081 162.286 443.7C147.003 435.401 117.67 450.684 108.467 437.784C99.2643 424.802 124.325 420.2 146.428 415.188C168.613 410.094 158.589 407.711 158.014 396.947C157.931 394.729 158.589 393.003 159.821 391.606C164.833 386.183 179.377 386.101 196.796 386.43C218.735 386.923 224.24 379.61 254.806 380.267C282.989 380.842 327.195 382.568 331.221 389.881C331.714 390.538 331.796 391.195 331.467 391.935Z" fill="#99ADF9"/>
<path d="M374.358 407.957C374.112 408.45 373.701 408.943 373.208 409.519C369.675 413.38 358.089 415.763 348.804 415.928C337.301 416.01 325.305 415.27 324.894 408.286C324.565 401.302 353.981 400.891 364.252 402.041C373.126 402.863 375.919 404.917 374.358 407.957Z" fill="#99ADF9"/>
<path d="M147.003 406.807C146.839 407.218 146.51 407.629 146.099 408.04C143.306 411.08 134.185 413.052 126.872 413.134C117.834 413.216 108.303 412.641 108.056 406.971C107.81 401.384 130.981 401.056 139.033 401.959C146.017 402.699 148.318 404.342 147.003 406.807Z" fill="#99ADF9"/>
<path d="M294.164 450.602C286.111 453.806 256.038 453.971 256.121 450.027C256.121 449.534 256.285 449.041 256.614 448.63C258.832 445.508 268.035 443.782 276.334 443.454C286.111 443.125 292.767 444.193 295.725 445.754C298.436 447.233 298.026 449.041 294.164 450.602Z" fill="#99ADF9"/>
<path d="M217.42 440.824C210.025 443.536 186.525 442.878 186.69 438.03C186.69 437.455 186.854 436.88 187.1 436.305C189.072 432.525 195.235 431.129 202.301 430.882C210.518 430.553 217.256 431.868 219.967 433.429C223.418 435.319 223.5 438.523 217.42 440.824Z" fill="#7C99F2"/>
<path d="M308.543 394.729C304.188 396.865 288.33 396.701 288.412 393.907C288.412 393.578 288.494 393.25 288.658 392.921C289.891 390.785 294.739 389.634 299.176 389.47C304.352 389.306 307.885 390.127 309.364 391.278C310.843 392.346 310.597 393.661 308.543 394.729Z" fill="#7C99F2"/>
<path d="M304.27 424.144C300.737 425.87 287.755 425.706 287.837 423.487C287.837 423.241 287.919 422.912 288.083 422.665C289.069 420.94 293.095 419.954 296.711 419.872C300.983 419.707 303.859 420.447 305.092 421.351C306.16 422.254 305.996 423.323 304.27 424.144Z" fill="#7C99F2"/>
<path d="M264.994 422.748C227.691 433.018 171.735 415.928 172.228 406.15C172.31 404.917 172.804 403.849 173.707 402.863C180.116 395.797 206.245 393.825 229.991 395.222C257.846 396.947 276.662 401.384 284.879 406.15C292.356 410.34 284.057 417.489 264.994 422.748Z" fill="#7C99F2"/>
<path d="M170.256 425.459C166.723 427.431 153.576 427.267 153.741 424.72C153.741 424.391 153.823 424.144 153.987 423.816C154.973 421.844 158.999 420.775 162.615 420.611C166.887 420.447 169.763 421.186 170.996 422.255C172.146 423.323 171.982 424.555 170.256 425.459Z" fill="#7C99F2"/>
<path d="M290.055 136.725C290.055 136.725 287.919 130.07 295.314 129.659C302.709 129.33 295.314 118.402 302.709 112.075C310.104 105.748 318.896 108.542 319.224 117.005C319.553 125.468 318.156 130.727 319.224 132.864C320.293 135 323.415 129.002 327.277 133.192C331.139 137.383 307.228 218.317 307.228 218.317L294.246 215.112L290.055 136.725Z" fill="#D2E9FF"/>
<path d="M313.555 149.625C310.022 151.269 302.791 199.583 308.789 194.817C310.186 193.749 322.593 145.435 313.555 149.625Z" fill="#E3F0FF"/>
<path d="M374.769 98.6C374.441 100.901 373.866 103.037 373.29 104.927C367.539 122.346 351.845 123.004 351.598 125.386C351.352 128.016 362.937 136.725 352.091 147.325C341.245 157.924 319.143 144.449 313.309 143.956C305.092 143.299 288.001 157.924 276.252 142.723C268.692 132.946 280.853 127.44 278.059 124.729C275.266 122.018 253.409 121.524 253.409 96.9567C253.409 96.4637 253.409 95.9707 253.409 95.4777C254.231 70.9098 276.087 72.6353 277.155 67.7875C278.224 62.9397 277.977 34.51 312.487 33.2775C347.079 32.045 346.011 67.048 349.133 68.6913C352.42 70.4168 378.467 74.936 374.769 98.6Z" fill="#E3F0FF"/>
<path d="M347.326 119.059C354.721 116.019 365.813 110.596 373.208 104.927C367.456 122.346 351.763 123.004 351.516 125.386C351.27 128.016 362.855 136.725 352.009 147.325C341.163 157.924 319.06 144.449 313.226 143.956C305.01 143.299 287.919 157.924 276.169 142.723C268.61 132.946 280.771 127.441 277.977 124.729C275.183 122.017 253.327 121.524 253.327 96.9567C255.217 100.818 259.161 106.324 267.624 110.186C281.839 116.677 291.863 109.446 296.875 116.43C301.887 123.414 291.37 127.769 296.054 131.877C300.819 135.986 308.214 125.633 320.046 131.138C331.96 136.643 339.355 140.259 344.039 135.246C348.969 130.152 336.808 123.414 347.326 119.059Z" fill="#D2E9FF"/>
<path d="M291.206 84.1387C291.206 84.1387 291.124 84.0565 290.877 83.8922C290.631 83.7278 290.384 83.4813 289.973 83.0705C289.234 82.331 288.248 81.1807 287.426 79.6195C287.015 78.88 286.604 77.9762 286.276 76.9902C285.947 76.0042 285.783 74.936 285.618 73.7857C285.536 72.6353 285.536 71.485 285.701 70.3347C285.783 69.7595 285.865 69.1843 286.029 68.6092C286.111 68.2805 286.111 68.1162 286.276 67.6232L286.522 66.8015C286.769 65.8155 287.426 64.583 288.083 63.5148C288.741 62.5288 289.645 61.5428 290.548 60.8033C291.534 60.0638 292.52 59.4887 293.506 59.0778C294.492 58.667 295.561 58.4205 296.464 58.2562C297.368 58.0918 298.272 58.0918 299.012 58.0918C299.751 58.0918 300.408 58.0918 300.984 58.174C301.559 58.2562 301.97 58.2562 302.216 58.3383C302.545 58.4205 302.709 58.4205 302.709 58.4205C303.777 58.667 304.435 59.653 304.188 60.7212C303.942 61.7893 302.956 62.4467 301.887 62.2002H301.805H301.641C301.641 62.2002 301.559 62.2002 301.394 62.118C301.148 62.0358 300.901 61.9537 300.408 61.9537C299.998 61.8715 299.505 61.7893 298.847 61.7893C298.272 61.7893 297.615 61.7072 296.875 61.7893C296.136 61.8715 295.396 61.9537 294.657 62.2823C293.917 62.5288 293.096 62.8575 292.438 63.3505C291.699 63.8435 291.041 64.5008 290.466 65.2403C289.891 65.9798 289.48 66.6372 289.069 67.7875L288.741 68.527L288.576 69.1843C288.412 69.6773 288.248 70.1703 288.248 70.6633C288.083 71.6493 288.001 72.6353 288.001 73.5392C288.001 74.443 288.166 75.429 288.33 76.2507C288.494 77.0723 288.823 77.894 289.152 78.5513C289.809 79.9482 290.631 81.0163 291.206 81.6737C291.534 82.0023 291.781 82.2488 291.945 82.4132C292.11 82.5775 292.192 82.6597 292.192 82.6597H292.274C292.603 82.9883 292.685 83.5635 292.356 83.8922C292.11 84.303 291.617 84.3852 291.206 84.1387Z" fill="#D2E9FF"/>
<path d="M301.148 59.9817C301.148 59.9817 301.148 59.8173 301.23 59.4065C301.312 59.0778 301.477 58.5848 301.641 57.9275C302.052 56.695 302.709 54.9695 304.106 53.0797C304.763 52.1758 305.667 51.1898 306.735 50.4503C307.804 49.6287 309.036 48.9713 310.351 48.3962C311.008 48.1497 311.748 47.9853 312.487 47.7388C313.227 47.5745 313.966 47.4923 314.705 47.4102C315.445 47.328 316.185 47.328 316.924 47.328H317.499H317.581H317.828H317.91H318.157L319.142 47.4102C319.471 47.4923 319.718 47.4923 320.129 47.5745L321.361 47.9032C321.772 48.0675 322.183 48.1497 322.594 48.314L323.662 48.807C324.401 49.1357 325.059 49.5465 325.634 50.0395C326.291 50.4503 326.784 51.0255 327.359 51.5185C329.413 53.6548 330.564 56.202 331.221 58.2562C331.878 60.3925 332.207 62.2002 332.371 63.4327C332.454 64.09 332.454 64.583 332.536 64.9117C332.536 65.3225 332.536 65.4868 332.536 65.4868C332.618 66.9658 331.468 68.1983 329.989 68.1983C328.51 68.2805 327.277 67.1302 327.277 65.6512V65.569V65.4047C327.277 65.4047 327.277 65.3225 327.277 65.076C327.277 64.8295 327.277 64.4187 327.195 63.9257C327.113 62.9397 326.948 61.3785 326.455 59.7352C325.962 58.0918 325.141 56.202 323.826 54.723C323.497 54.3943 323.169 53.9835 322.758 53.6548C322.347 53.3262 321.936 52.9975 321.525 52.8332L320.868 52.4223C320.622 52.3402 320.457 52.258 320.211 52.1758L319.553 51.9293C319.307 51.8472 318.896 51.8472 318.65 51.765L317.664 51.6007H317.417H317.335C317.171 51.6007 317.581 51.6007 317.499 51.6007H317.417H317.006C316.431 51.6007 315.856 51.5185 315.281 51.6007C314.706 51.6828 314.13 51.6828 313.637 51.765C313.144 51.9293 312.569 52.0115 312.076 52.1758C311.09 52.5045 310.186 52.9153 309.447 53.4905C308.707 53.9835 308.05 54.6408 307.557 55.2982C306.489 56.6128 305.914 57.9275 305.585 58.9135C305.421 59.4065 305.338 59.7352 305.256 59.9817C305.174 60.2282 305.174 60.3103 305.174 60.3103V60.4747C304.928 61.5428 303.942 62.118 302.873 61.9537C301.559 61.9537 300.984 60.9677 301.148 59.9817Z" fill="#D2E9FF"/>
<path d="M341.985 72.0602C341.985 72.0602 342.56 72.0602 343.464 72.1423C344.368 72.2245 345.6 72.3888 347.079 72.7997C348.558 73.2105 350.284 73.8678 351.927 75.1825C352.749 75.8398 353.488 76.5793 354.145 77.4832C354.474 77.9762 354.721 78.387 354.967 78.9622L355.296 79.7017L355.46 80.5233C355.707 81.345 355.953 82.5775 355.953 83.5635C356.035 84.6317 355.953 85.6177 355.707 86.5215C355.296 88.4113 354.556 90.0547 353.735 91.2872C352.913 92.5197 352.009 93.4235 351.434 93.9987C350.777 94.5738 350.366 94.9025 350.366 94.9025C349.955 95.2312 349.298 95.149 348.969 94.7382C348.64 94.3273 348.722 93.67 349.133 93.3413C349.051 93.4235 350.53 92.2732 351.763 90.0547C352.42 88.9865 352.913 87.5897 353.077 86.0285C353.159 85.289 353.159 84.4673 353.077 83.7278C352.995 82.9062 352.831 82.331 352.502 81.345L352.338 80.7698L352.091 80.2768C351.927 79.9482 351.68 79.6195 351.516 79.373C351.105 78.7978 350.53 78.387 349.955 77.9762C348.722 77.2367 347.408 76.7437 346.175 76.4972C344.943 76.2507 343.957 76.1685 343.217 76.1685C342.478 76.1685 342.149 76.1685 342.149 76.1685C340.999 76.1685 340.013 75.2647 340.013 74.1143C339.931 73.0462 340.834 72.0602 341.985 72.0602Z" fill="#D2E9FF"/>
<path d="M287.426 82.0845C287.426 82.0845 287.344 82.0845 287.262 82.0845C287.097 82.0845 286.933 82.1667 286.687 82.2488C286.111 82.4132 285.372 82.6597 284.55 83.2348C284.139 83.4813 283.729 83.81 283.4 84.2208C282.989 84.6317 282.66 85.1247 282.414 85.6998C282.167 86.275 281.921 86.8502 281.757 87.5897C281.592 88.247 281.51 89.0687 281.51 89.726C281.51 90.6298 281.592 91.205 281.757 91.8623C281.921 92.5197 282.167 93.177 282.578 93.7522C283.318 94.9025 284.304 95.7242 285.29 96.2993C286.276 96.8745 287.18 97.2032 287.837 97.3675C288.494 97.5318 288.905 97.614 288.823 97.614C289.234 97.614 289.563 98.0248 289.48 98.4357C289.48 98.8465 289.07 99.1752 288.659 99.093C288.659 99.093 288.166 99.093 287.426 98.9287C286.687 98.7643 285.618 98.5178 284.304 98.0248C283.071 97.4497 281.674 96.5458 280.524 95.149C279.949 94.4095 279.538 93.5878 279.209 92.7662C279.045 92.3553 278.963 91.7802 278.799 91.3693C278.634 90.8763 278.634 90.5477 278.552 90.0547C278.552 89.8082 278.47 89.726 278.47 89.3152V88.6578C278.47 88.1648 278.47 87.754 278.552 87.261C278.634 86.3572 278.799 85.3712 279.127 84.5495C279.456 83.6457 279.867 82.824 280.442 82.1667C280.935 81.4272 281.51 80.852 282.167 80.359C283.318 79.373 284.468 78.88 285.29 78.5513C285.701 78.387 286.029 78.3048 286.276 78.2227C286.522 78.1405 286.687 78.1405 286.687 78.1405C287.837 77.894 288.987 78.5513 289.234 79.7017C289.48 80.852 288.823 82.0023 287.673 82.2488C287.59 82.0845 287.508 82.0845 287.426 82.0845Z" fill="#D2E9FF"/>
<path d="M337.794 106.899C337.794 106.899 337.794 107.474 337.63 108.378C337.466 109.282 337.219 110.514 336.726 111.993C336.233 113.472 335.494 115.198 334.097 116.759C333.44 117.498 332.618 118.238 331.632 118.813C331.139 119.06 330.646 119.388 330.153 119.553L329.331 119.799L328.592 119.963C327.77 120.21 326.538 120.292 325.552 120.292C324.483 120.292 323.497 120.128 322.594 119.963C320.704 119.47 319.143 118.649 317.91 117.745C316.678 116.841 315.856 115.937 315.281 115.28C314.706 114.623 314.459 114.212 314.459 114.13C314.13 113.719 314.295 113.061 314.706 112.733C315.116 112.404 315.774 112.568 316.102 112.979C316.102 112.897 317.088 114.376 319.307 115.773C320.375 116.43 321.772 117.088 323.251 117.334C323.99 117.498 324.812 117.498 325.552 117.416C326.373 117.334 326.948 117.252 327.934 116.923L328.51 116.759L329.003 116.512C329.331 116.348 329.66 116.184 329.906 115.937C330.482 115.526 330.975 114.951 331.385 114.458C332.207 113.308 332.7 111.993 333.029 110.761C333.357 109.528 333.44 108.542 333.522 107.803C333.604 107.063 333.522 106.735 333.522 106.735C333.522 105.584 334.508 104.68 335.658 104.68C336.891 104.763 337.877 105.666 337.794 106.899Z" fill="#D2E9FF"/>
<path d="M272.554 174.851L269.103 165.237C269.103 165.237 277.073 164.005 272.883 153.57C270.5 147.736 263.762 152.337 263.762 152.337C263.762 152.337 262.612 143.874 253.82 145.764C246.918 147.243 246.754 158.335 249.465 161.868C252.094 165.402 254.806 165.073 254.806 165.073C254.806 165.073 249.054 164.909 249.958 170.167C250.862 175.426 255.381 175.672 258.832 173.947C260.475 173.125 261.708 171.071 261.708 171.071L269.185 177.234C269.842 177.809 270.828 177.891 271.65 177.48C272.554 177.069 272.965 175.919 272.554 174.851Z" fill="#D2E9FF"/>
<path d="M354.556 196.378C354.227 197.939 353.652 199.336 352.995 200.076C351.023 202.376 347.901 202.623 347.901 202.623C347.901 202.623 350.694 204.184 348.64 207.553C347.079 210.018 342.478 208.539 341.245 206.978C339.93 205.417 339.93 203.609 339.93 203.609L334.343 208.375C333.439 209.196 331.96 209.114 331.139 208.128C330.399 207.306 330.399 205.992 331.139 205.17L331.878 204.348L336.397 199.008C336.397 199.008 329.988 196.378 332.289 191.613C334.343 187.258 338.451 189.312 339.52 190.462C340.506 191.531 340.67 193.338 340.67 193.338C340.67 193.338 342.56 186.025 349.38 187.669C354.474 188.819 355.213 193.009 354.556 196.378Z" fill="#D2E9FF"/>
<path d="M179.87 296.868C181.184 298.676 181.267 301.141 179.952 303.031L179.459 303.688C178.966 304.345 178.226 304.674 177.487 304.674C176.912 304.674 176.419 304.51 175.926 304.099L168.038 297.197C168.038 297.197 164.176 306.153 153.659 304.099C146.346 302.62 144.456 296.375 145.278 291.199C145.606 288.651 146.592 286.351 147.907 284.954C150.208 282.489 153.166 282.16 155.302 282.242C153.166 281.585 150.125 279.86 148.975 275.587C148.236 272.875 148.4 270.164 149.386 268.028C150.947 264.659 154.48 262.522 159.492 263.098C167.791 264.166 167.956 275.916 167.956 275.916C167.956 275.916 170.831 267.945 178.719 271.396C185.621 274.437 183.649 283.639 178.966 287.255C176.501 289.144 174.365 289.555 174.365 289.555L179.87 296.868Z" fill="#E1ECFF"/>
<path d="M162.04 283.721C162.04 283.721 158.671 283.064 155.384 282.16C153.248 281.503 150.208 279.86 148.975 275.505C148.236 272.793 148.4 270.082 149.386 267.945C149.879 270.821 151.194 275.341 154.398 278.299C159.41 282.9 162.04 283.721 162.04 283.721Z" fill="#C5DFFF"/>
<path d="M179.459 303.606C178.966 304.263 178.226 304.592 177.487 304.592C176.912 304.592 176.419 304.428 175.926 304.017L168.038 297.115C168.038 297.115 164.176 306.071 153.659 304.017C146.346 302.538 144.456 296.293 145.278 291.116C146.428 293.581 148.975 296.375 154.809 297.361C166.477 299.415 166.805 292.102 166.805 292.102L179.459 303.606Z" fill="#C5DFFF"/>
<path d="M210.765 278.709C209.696 278.709 206.163 278.463 202.959 275.505C199.754 272.547 198.111 267.863 198.029 261.701C197.864 247.157 195.071 245.185 192.031 244.281C187.758 243.049 183.157 244.692 183.157 244.692C181.513 245.35 179.706 244.528 179.048 242.885C178.391 241.241 179.213 239.434 180.856 238.776C181.102 238.694 187.347 236.311 193.756 238.119C202.301 240.584 204.191 248.883 204.273 261.536C204.356 265.809 205.342 269.014 207.067 270.739C208.71 272.3 210.6 272.3 210.6 272.3C212.326 272.136 213.805 273.615 213.887 275.341C213.969 277.066 212.654 278.545 210.929 278.627C211.011 278.709 210.929 278.709 210.765 278.709Z" fill="#FF97C9"/>
<path d="M208.217 234.504C207.396 235.243 205.013 237.873 204.684 242.145C204.438 246.5 206.41 251.019 210.6 255.621C220.378 266.302 219.803 269.671 218.159 272.383C215.859 276.244 211.422 278.134 211.422 278.134C209.778 278.792 209.039 280.599 209.696 282.243C210.354 283.886 212.161 284.625 213.805 283.968C214.051 283.886 220.296 281.339 223.665 275.587C228.184 267.863 223.829 260.633 215.366 251.266C212.49 248.143 211.011 245.103 211.093 242.638C211.175 240.338 212.572 239.105 212.654 239.023C213.969 237.955 214.051 235.901 212.901 234.586C211.75 233.271 209.861 233.107 208.464 234.257C208.382 234.339 208.299 234.422 208.217 234.504Z" fill="#99ADF9"/>
<path d="M353.817 253.32C350.694 253.32 347.243 252.334 344.121 249.869C338.78 245.761 335.247 248.554 335.247 248.636C333.932 249.787 331.878 249.622 330.81 248.226C329.66 246.911 329.824 244.857 331.221 243.789C333.768 241.652 340.588 239.105 348.065 244.857C352.091 247.979 356.364 247.157 358.007 245.596C359.568 244.199 360.472 240.173 360.636 237.79C360.719 236.065 362.28 234.668 364.005 234.832C365.731 234.914 367.045 236.476 366.963 238.201C366.881 239.023 366.306 246.664 362.28 250.28C360.226 252.17 357.186 253.32 353.817 253.32Z" fill="#99ADF9"/>
<path d="M352.173 292.431L378.385 321.765C378.385 321.765 370.743 308.618 364.17 300.319C357.268 291.774 352.173 292.431 352.173 292.431Z" fill="#E1ECFF"/>
<path d="M372.797 305.906C372.797 305.906 366.059 297.854 365.073 296.622C362.444 293.417 360.554 292.431 360.554 292.431C360.554 292.431 362.937 292.103 366.059 296.046C369.182 299.908 372.797 305.906 372.797 305.906Z" fill="#E1ECFF"/>
<path d="M332.618 278.545L344.45 258.168L337.383 276.984L347.818 287.337L332.618 278.545Z" fill="#FEC272"/>
<path d="M351.105 268.356L334.097 277.477L338.287 279.038L351.105 268.356Z" fill="#FEC272"/>
<path d="M179.295 232.45L173.132 225.301C172.393 224.397 172.475 223.082 173.379 222.261C174.283 221.521 175.597 221.603 176.419 222.507C176.583 222.672 176.665 222.836 176.748 223L180.692 231.546C180.856 231.956 180.692 232.45 180.281 232.614C179.952 232.86 179.541 232.778 179.295 232.45Z" fill="#FEC272"/>
<path d="M173.625 240.255L162.04 241.406C160.889 241.488 159.821 240.666 159.739 239.516C159.657 238.366 160.479 237.297 161.629 237.215C161.793 237.215 161.958 237.215 162.122 237.215L173.625 238.612C174.118 238.694 174.365 239.105 174.365 239.516C174.283 239.927 174.036 240.255 173.625 240.255Z" fill="#FEC272"/>
<path d="M178.719 249.787L173.05 256.853C172.31 257.757 170.996 257.921 170.092 257.182C169.188 256.442 169.024 255.127 169.763 254.224C169.845 254.059 170.01 253.895 170.174 253.813L177.569 248.554C177.98 248.308 178.473 248.39 178.802 248.718C179.048 249.047 178.966 249.458 178.719 249.787Z" fill="#FEC272"/>
<path d="M213.065 228.259L217.42 222.507C217.995 221.768 218.981 221.686 219.721 222.179C220.46 222.754 220.542 223.74 220.049 224.479C219.967 224.562 219.885 224.726 219.721 224.808L213.969 229.163C213.722 229.409 213.312 229.327 213.065 229.081C212.901 228.834 212.901 228.506 213.065 228.259Z" fill="#FEC272"/>
<path d="M206.327 225.301L203.534 216.838C203.287 216.016 203.698 215.03 204.602 214.784C205.424 214.537 206.41 214.948 206.656 215.852C206.656 215.934 206.738 216.098 206.738 216.18L207.56 225.054C207.56 225.383 207.313 225.712 206.985 225.712C206.656 225.712 206.41 225.548 206.327 225.301Z" fill="#FEC272"/>
<path d="M200.001 230.642L193.756 227.519C192.934 227.109 192.606 226.123 193.016 225.301C193.427 224.479 194.413 224.151 195.235 224.561C195.399 224.644 195.481 224.726 195.646 224.808L200.822 229.491C201.069 229.738 201.151 230.149 200.904 230.478C200.576 230.724 200.247 230.806 200.001 230.642Z" fill="#FEC272"/>
<path d="M365.731 219.96L364.252 228.423C364.17 228.916 363.759 229.163 363.266 229.081C362.855 228.998 362.608 228.67 362.526 228.341L361.458 219.796C361.294 218.646 362.115 217.577 363.348 217.413C364.498 217.249 365.566 218.07 365.731 219.303C365.813 219.549 365.813 219.714 365.731 219.96Z" fill="#FEC272"/>
<path d="M380.603 227.93L371.976 233.6C371.4 233.928 370.661 233.846 370.332 233.271C370.004 232.778 370.086 232.121 370.497 231.71L378.056 224.644C378.878 223.822 380.274 223.904 381.014 224.726C381.836 225.547 381.753 226.944 380.932 227.684C380.767 227.766 380.685 227.848 380.603 227.93Z" fill="#FEC272"/>
<path d="M379.206 246.007L371.811 242.474C371.318 242.227 371.072 241.652 371.318 241.077C371.482 240.666 371.975 240.42 372.386 240.502L380.439 241.899C381.589 242.063 382.411 243.213 382.164 244.364C382 245.514 380.849 246.336 379.699 246.089C379.617 246.171 379.453 246.089 379.206 246.007Z" fill="#FEC272"/>
<path d="M263.433 205.745C263.433 205.745 228.841 247.157 227.526 246.089C227.198 245.843 226.623 243.953 225.883 240.913C223.911 232.285 221.2 214.209 220.871 194.982C220.46 169.099 221.117 161.211 228.019 158.007C233.114 155.624 247 178.548 256.12 193.913C259.407 199.172 261.954 203.527 263.433 205.745Z" fill="#FF97C9"/>
<path d="M263.433 205.745C263.433 205.745 228.841 247.157 227.526 246.089C227.198 245.843 226.623 243.953 225.883 240.913C229.252 232.285 233.36 223.165 237.879 216.263C245.192 205.252 251.766 198.104 256.12 193.913C259.407 199.172 261.954 203.527 263.433 205.745Z" fill="#FC75BC"/>
<path d="M383.232 348.14C381.096 352.577 361.294 346.415 345.107 340.827C341.985 339.759 338.944 338.691 336.151 337.705C329.742 335.487 325.469 329.406 325.469 322.586C325.551 306.728 324.072 281.503 327.112 280.188C330.728 278.545 348.64 296.211 364.991 315.191C381.918 334.829 386.437 341.32 383.232 348.14Z" fill="#FF97C9"/>
<path d="M345.107 340.828C341.985 339.76 338.944 338.692 336.151 337.706C329.742 335.487 325.469 329.407 325.469 322.587C325.551 306.729 324.072 281.504 327.112 280.189C327.195 280.189 333.932 301.059 338.534 317.493C341.163 327.024 343.381 334.83 345.107 340.828Z" fill="#FC75BC"/>
<path d="M333.275 239.105C332.7 261.536 329.413 298.84 316.02 335.815C304.434 367.86 294.41 389.141 287.755 401.713C282.249 412.066 279.045 416.667 279.045 416.667C279.045 416.667 270.335 421.022 253.573 422.337C244.206 423.076 232.374 422.912 218.159 420.529C178.391 413.873 174.2 401.384 174.2 401.384C174.2 401.384 173.625 394.236 175.515 380.185C177.898 362.109 184.471 332.693 201.644 292.513C220.953 247.568 242.974 221.111 256.613 207.717C264.666 199.829 269.842 196.461 269.842 196.461C269.842 196.461 280.524 192.106 302.627 199.008C311.419 201.719 318.074 205.252 322.758 208.621C329.988 213.633 332.946 218.07 332.946 218.07C332.946 218.07 333.686 226.123 333.275 239.105Z" fill="#E1ECFF"/>
<path d="M333.275 239.105C332.7 261.537 329.413 298.84 316.02 335.815C304.434 367.86 294.41 389.141 287.755 401.713C282.249 412.066 279.045 416.667 279.045 416.667C279.045 416.667 270.335 421.022 253.573 422.337C264.255 407.711 280.113 382.322 295.889 343.868C321.525 281.421 323.086 226.534 322.84 208.621C330.07 213.633 333.028 218.07 333.028 218.07C333.028 218.07 333.686 226.123 333.275 239.105Z" fill="#C5DFFF"/>
<path d="M184.882 376.652C184.635 376.652 184.471 376.652 184.225 376.57C181.924 376.241 180.363 374.023 180.691 371.722C180.938 370.325 186.197 336.473 200.74 302.373C215.284 268.356 226.787 251.676 227.28 250.937C228.595 249.047 231.224 248.554 233.196 249.869C235.086 251.183 235.579 253.813 234.264 255.785C234.182 255.949 222.679 272.547 208.546 305.66C194.413 338.773 189.072 372.626 189.072 372.955C188.662 375.173 186.854 376.652 184.882 376.652Z" fill="#F8FBFF"/>
<path d="M333.275 239.106C330.399 236.559 326.702 233.601 322.265 230.561C320.457 229.328 318.485 228.013 316.349 226.699C315.198 226.041 314.048 225.302 312.816 224.645C307.968 221.851 302.463 219.222 296.464 216.921C295.971 216.757 295.561 216.592 295.068 216.428C294.164 216.099 293.342 215.771 292.52 215.524C285.618 213.059 279.538 211.416 274.361 210.265C272.882 209.937 271.404 209.69 270.089 209.362C264.337 208.293 259.9 207.965 256.778 207.8C264.83 199.912 270.007 196.544 270.007 196.544C270.007 196.544 273.293 195.229 280.031 195.229C281.51 195.229 283.153 195.311 284.961 195.475C289.234 195.804 294.41 196.708 300.491 198.433C301.23 198.68 302.052 198.844 302.791 199.091C303.366 199.255 303.942 199.419 304.517 199.666C309.282 201.309 313.391 203.117 316.842 204.925C318.238 205.664 319.471 206.404 320.704 207.225C321.525 207.718 322.182 208.211 322.922 208.704C330.153 213.716 333.111 218.153 333.111 218.153C333.111 218.153 333.686 226.124 333.275 239.106Z" fill="#1C3177"/>
<path d="M333.275 239.105C330.399 236.558 326.702 233.6 322.265 230.56C322.922 220.946 322.922 213.469 322.922 208.703C330.153 213.715 333.111 218.152 333.111 218.152C333.111 218.152 333.686 226.123 333.275 239.105Z" fill="#142966"/>
<path d="M320.703 207.224L316.924 225.712C316.842 226.123 316.677 226.451 316.349 226.78C315.198 226.123 314.048 225.383 312.815 224.726L316.842 205.006C318.238 205.745 319.553 206.485 320.703 207.224Z" fill="#142966"/>
<path d="M304.517 199.665L296.464 216.92C295.971 216.756 295.56 216.591 295.067 216.427C294.164 216.098 293.342 215.77 292.52 215.523L300.408 198.432C301.148 198.679 301.969 198.843 302.709 199.09C303.366 199.336 303.941 199.501 304.517 199.665Z" fill="#142966"/>
<path d="M284.961 195.475C284.879 195.639 284.797 195.803 284.714 195.968L274.362 210.264C272.883 209.936 271.404 209.689 270.089 209.361C270.171 209.032 270.253 208.703 270.5 208.375L280.031 195.146C281.51 195.228 283.153 195.31 284.961 195.475Z" fill="#142966"/>
<path d="M225.509 391.132C244.825 397.758 267.932 381.417 277.121 354.632C286.31 327.847 278.1 300.762 258.784 294.135C239.468 287.509 216.361 303.85 207.172 330.635C197.983 357.42 206.193 384.505 225.509 391.132Z" fill="#C5DFFF"/>
<path d="M228.154 389.029C247.47 395.655 270.495 379.557 279.58 353.073C288.666 326.589 280.373 299.747 261.057 293.12C241.741 286.494 218.717 302.592 209.631 329.076C200.545 355.56 208.838 382.402 228.154 389.029Z" fill="#1C3177"/>
<path d="M230.068 379.857C245.392 385.114 263.772 372.012 271.12 350.593C278.468 329.174 272.002 307.548 256.678 302.291C241.354 297.034 222.975 310.136 215.627 331.555C208.278 352.975 214.744 374.6 230.068 379.857Z" fill="#99ADF9"/>
<path d="M237.838 328.618C242.216 330.12 247.473 326.361 249.579 320.223C251.684 314.085 249.842 307.892 245.464 306.39C241.085 304.887 235.829 308.646 233.723 314.784C231.618 320.922 233.46 327.116 237.838 328.618Z" fill="#C5DFFF"/>
<path d="M227.797 355.612C230.157 356.422 232.979 354.434 234.098 351.172C235.217 347.91 234.21 344.608 231.849 343.799C229.489 342.989 226.667 344.977 225.548 348.239C224.429 351.501 225.436 354.802 227.797 355.612Z" fill="#C5DFFF"/>
<path d="M271.157 350.605C263.762 372.051 245.439 385.115 230.073 379.857C222.021 377.063 216.352 369.75 213.969 360.301C215.941 361.616 218.077 362.766 220.378 363.505C239.44 370.079 262.365 353.728 271.485 327.023C272.061 325.38 272.554 323.737 272.964 322.093C275.019 330.557 274.608 340.663 271.157 350.605Z" fill="#7C99F2"/>
<path d="M287.837 401.795C282.332 412.148 279.127 416.749 279.127 416.749C279.127 416.749 270.418 421.104 253.656 422.419C244.289 423.158 232.457 422.994 218.242 420.611C203.534 418.146 193.756 414.86 187.183 411.737C176.008 406.396 174.283 401.466 174.283 401.466C174.283 401.466 173.707 394.318 175.597 380.267C179.048 383.472 183.65 387.087 189.73 390.456C199.097 395.633 211.833 400.48 229.17 403.028C242.152 404.917 254.559 405.164 265.652 404.424C273.869 404.014 281.346 402.945 287.837 401.795Z" fill="#FF97C9"/>
<path d="M287.837 401.795C282.332 412.148 279.127 416.749 279.127 416.749C279.127 416.749 270.418 421.104 253.656 422.419C257.189 417.571 261.215 411.655 265.652 404.424C273.869 404.014 281.346 402.945 287.837 401.795Z" fill="#FC75BC"/>
<path d="M189.73 390.538L187.183 411.82C176.008 406.479 174.283 401.549 174.283 401.549C174.283 401.549 173.707 394.4 175.597 380.35C179.048 383.554 183.65 387.087 189.73 390.538Z" fill="#FCB6DA"/>
</svg>
