<svg viewBox="0 0 478 487" fill="none" xmlns="http://www.w3.org/2000/svg">
<path d="M89.7599 142.592C89.7599 142.592 68.0873 151.165 64.9001 171.99C61.713 192.815 110.961 253.817 110.961 253.817L262.835 171.977L214.817 87.7089L89.7599 142.592Z" fill="#C7DCF9"/>
<path d="M123.34 162.275C123.34 162.275 107.359 178.683 102.457 196.837C97.5557 214.991 96.9246 247.411 97.7405 259.554C121.58 281.615 215.812 263.13 215.812 263.13L306.62 156.309C306.62 156.309 291.226 127.083 283.411 119.07C275.596 111.058 250.265 101.095 221.039 112.855C203.885 137.199 123.34 162.275 123.34 162.275Z" fill="#E1ECFF"/>
<g style="mix-blend-mode:multiply">
<path d="M116.207 170.76C116.207 170.76 151.463 182.074 191.149 166.744C230.836 151.414 238.026 108.234 238.026 108.234L221.019 112.862L123.34 162.275L116.207 170.76Z" fill="#E1ECFF"/>
</g>
<path d="M259.73 303.211C259.73 303.211 304.306 303.498 316.831 306.698C329.357 309.898 362.51 384.93 376.227 392.113C389.945 399.297 401.597 387.365 416.71 378.504C431.824 369.644 445.675 358.922 446.109 354.448C446.542 349.973 440.123 332.093 434.571 328.485C429.019 324.877 412.899 324.622 404.3 330.13C391.666 295.709 373.703 245.511 357.232 238.601C340.761 231.692 290.843 228.402 290.843 228.402L259.73 303.211Z" fill="#E1ECFF"/>
<g style="mix-blend-mode:multiply" opacity="0.51">
<path d="M306.62 270.358C306.62 270.358 342.915 274.329 352.942 287.836C362.969 301.344 382.837 383.993 405.077 385.95C405.434 412.722 359.374 422.391 359.374 422.391L248.964 299.712L306.62 270.358Z" fill="#E1ECFF"/>
</g>
<path d="M139.97 296.442C139.97 296.442 167.38 353.931 192.239 369.612C217.099 385.293 262.14 384.024 274.564 394.293C286.987 404.562 284.361 453.893 296.778 466.96C309.195 480.028 326.667 488.034 342.998 486.561C359.329 485.089 372.396 477.255 372.562 469.905C372.728 462.556 372.071 456.182 364.397 452.261C356.722 448.341 345.911 445.078 345.446 440.507C344.98 435.937 336.299 366.355 332.697 347.442C329.096 328.53 301.125 302.223 265.079 288.971C230.944 260.389 178.516 272.634 178.516 272.634L139.97 296.442Z" fill="#E1ECFF"/>
<g style="mix-blend-mode:multiply">
<path d="M147.944 311.823C147.944 311.823 179.402 313.429 207.652 301.018C202.253 272.27 185.597 263.78 185.597 263.78L139.97 296.442L147.944 311.823Z" fill="#E1ECFF"/>
</g>
<path d="M191.475 11.5998C166.838 -1.58866 115.206 -6.03792 83.3345 33.4891C51.463 73.0161 67.3478 114.009 80.7402 133.094C94.7636 153.122 142.966 183.731 194.413 154.983C245.86 126.235 251.253 43.6115 191.475 11.5998Z" fill="#E1ECFF"/>
<path d="M187.236 35.7711C209.119 40.998 223.333 71.703 215.984 101.101C208.634 130.499 183.315 150.266 154.899 150.426C126.482 150.585 98.225 131.182 98.3779 94.899C98.5309 60.0316 139.715 24.4248 187.236 35.7711Z" fill="#1C3177"/>
<g style="mix-blend-mode:multiply">
<path d="M124.187 265.412C152.7 252.179 131.371 221.964 159.794 215.093C197.269 220.422 207.633 218.509 207.633 218.509C207.633 218.509 135.942 281.475 124.187 265.412Z" fill="#E1ECFF"/>
</g>
<path d="M147.944 184.598L195.395 306.698L262.522 305.098L323.932 266.227L342.227 210.695L297.804 77.4207L276.24 139.812L220.382 184.235L147.944 184.598Z" fill="#FF97C9"/>
<path d="M124.187 265.412C139.919 264.137 147.932 253.893 152.7 249.348C155.128 247.028 154.644 244.995 153.42 238.302C152.196 231.609 156.441 224.744 162.242 221.805C165.429 230.378 169.343 232.004 172.364 231.602C175.386 231.201 178.49 213.149 188.37 213.308C198.25 213.467 206.174 226.541 207.493 233.068C208.813 239.596 202.432 258.215 194.426 271.282C186.42 284.35 175.124 300.528 149.697 305.589C124.27 310.65 109.813 297.666 101.482 281.252C98.6711 275.712 97.6576 268.057 97.7468 259.528C97.7468 259.528 103.439 267.043 124.187 265.412Z" fill="#E1ECFF"/>
<path d="M313.103 123.322C313.103 123.322 316.13 133.17 314.091 137.008C312.051 140.845 309.272 144.019 307.232 148.934C305.192 153.849 308.213 172.372 317.195 175.553C326.176 178.734 333.609 170.409 335.98 165.59C338.351 160.771 337.038 148.118 333.526 139.296C330.014 130.474 323.41 122.634 313.103 123.322Z" fill="#E1ECFF"/>
<path d="M323.429 0.961057L325.443 5.0406C325.564 5.28781 325.743 5.5018 325.965 5.66399C326.187 5.82618 326.446 5.93166 326.718 5.97126L331.225 6.60869C331.54 6.65381 331.836 6.78635 332.079 6.99128C332.323 7.19621 332.504 7.46531 332.602 7.76802C332.7 8.07074 332.712 8.39494 332.635 8.7038C332.558 9.01267 332.397 9.29383 332.168 9.51536L328.911 12.7025C328.713 12.8945 328.565 13.1318 328.479 13.3939C328.394 13.656 328.373 13.9351 328.42 14.2068L329.185 18.6689C329.239 18.9818 329.204 19.3036 329.085 19.5979C328.966 19.8922 328.767 20.1473 328.51 20.3343C328.253 20.5213 327.95 20.6328 327.633 20.6562C327.316 20.6795 326.999 20.6138 326.718 20.4664L322.683 18.3501C322.44 18.2212 322.168 18.1538 321.893 18.1538C321.617 18.1538 321.346 18.2212 321.102 18.3501L317.067 20.4664C316.786 20.6155 316.468 20.6827 316.15 20.6602C315.833 20.6377 315.528 20.5265 315.27 20.3392C315.012 20.152 314.812 19.8961 314.693 19.6008C314.573 19.3055 314.539 18.9826 314.594 18.6689L315.365 14.2068C315.412 13.9351 315.392 13.656 315.306 13.3939C315.221 13.1318 315.072 12.8945 314.875 12.7025L311.617 9.51536C311.389 9.29383 311.227 9.01267 311.15 8.7038C311.073 8.39494 311.085 8.07074 311.183 7.76802C311.281 7.46531 311.463 7.19621 311.706 6.99128C311.95 6.78635 312.246 6.65381 312.561 6.60869L317.067 5.97126C317.34 5.93166 317.598 5.82618 317.82 5.66399C318.042 5.5018 318.221 5.28781 318.342 5.0406L320.356 0.961057C320.497 0.672916 320.715 0.429995 320.987 0.260055C321.258 0.0901148 321.572 0 321.893 0C322.213 0 322.527 0.0901148 322.799 0.260055C323.07 0.429995 323.289 0.672916 323.429 0.961057V0.961057Z" fill="#FEC272"/>
<path d="M107.774 432.686L109.463 436.109C109.563 436.317 109.714 436.496 109.901 436.632C110.087 436.768 110.305 436.855 110.534 436.887L114.314 437.435C114.577 437.473 114.824 437.585 115.028 437.757C115.231 437.928 115.383 438.154 115.465 438.407C115.547 438.66 115.557 438.931 115.493 439.19C115.429 439.448 115.295 439.684 115.104 439.87L112.369 442.534C112.201 442.697 112.076 442.898 112.005 443.12C111.934 443.343 111.919 443.579 111.961 443.809L112.599 447.57C112.643 447.832 112.612 448.102 112.512 448.348C112.411 448.594 112.244 448.808 112.029 448.965C111.814 449.121 111.56 449.215 111.295 449.236C111.029 449.256 110.764 449.202 110.527 449.081L107.149 447.302C106.944 447.196 106.717 447.14 106.486 447.14C106.255 447.14 106.028 447.196 105.823 447.302L102.457 449.068C102.221 449.192 101.955 449.248 101.688 449.229C101.422 449.209 101.166 449.116 100.951 448.958C100.735 448.801 100.568 448.586 100.468 448.339C100.368 448.091 100.339 447.82 100.386 447.557L101.023 443.796C101.063 443.566 101.045 443.33 100.973 443.108C100.901 442.886 100.776 442.684 100.609 442.521L97.8806 439.857C97.69 439.671 97.5551 439.436 97.4913 439.177C97.4275 438.919 97.4373 438.647 97.5195 438.394C97.6017 438.141 97.7531 437.916 97.9566 437.744C98.1601 437.572 98.4075 437.461 98.671 437.422L102.445 436.874C102.674 436.842 102.892 436.754 103.08 436.619C103.267 436.483 103.419 436.304 103.522 436.096L105.211 432.673C105.33 432.434 105.513 432.234 105.741 432.094C105.968 431.954 106.229 431.881 106.496 431.882C106.763 431.883 107.024 431.959 107.25 432.101C107.476 432.243 107.657 432.446 107.774 432.686V432.686Z" fill="#FEC272"/>
<g style="mix-blend-mode:soft-light" opacity="0.48">
<path d="M168.134 72.4223C183.821 68.9646 195.547 61.6634 194.324 56.1147C193.101 50.5659 179.392 48.8707 163.705 52.3284C148.018 55.786 136.292 63.0872 137.515 68.636C138.738 74.1848 152.447 75.88 168.134 72.4223Z" fill="white"/>
</g>
<g style="mix-blend-mode:multiply">
<path d="M203.86 251.375C203.86 251.375 185.814 235.248 182.544 235.248C179.274 235.248 170.567 247.997 172.53 251.375C174.493 254.754 184.578 265.82 195.65 269.223C199.238 262.377 203.86 251.375 203.86 251.375Z" fill="#E1ECFF"/>
</g>
<g style="mix-blend-mode:multiply" opacity="0.5">
<path d="M220.382 184.235L262.522 305.098L323.932 266.227L276.24 139.812L220.382 184.235Z" fill="#FF97C9"/>
</g>
<g style="mix-blend-mode:multiply">
<path d="M336.311 370.53C329.995 375.763 322.897 379.972 315.276 383.005C308.131 385.758 305.715 391.393 307.876 401.732C310.037 412.071 311.248 428.192 315.71 432.437C320.172 436.683 335.521 434.426 343.476 424.559C340.984 405.117 336.311 370.53 336.311 370.53Z" fill="#E1ECFF"/>
</g>
<g style="mix-blend-mode:multiply">
<path d="M377.904 265.118C377.904 265.118 368.98 269.007 369.827 275.209C370.675 281.411 379.79 311.389 383.385 314.092C386.981 316.795 397.619 312.001 397.619 312.001C386.694 281.048 377.904 265.118 377.904 265.118Z" fill="#E1ECFF"/>
</g>
<path d="M1.31006 336.855C-5.78453 322.143 17.335 306.398 37.0061 307.533C56.6772 308.668 64.9447 326.828 71.9118 333.604C86.4643 347.742 86.0054 361.574 75.9276 367.521C65.8498 373.469 10.6994 356.315 1.31006 336.855Z" fill="#99ADF9"/>
<path d="M398.148 108.942C392.412 103.919 398.314 80.3083 411.866 74.7818C425.418 69.2553 442.246 75.2982 445.841 84.7704C449.436 94.2426 409.909 119.23 398.148 108.942Z" fill="#99ADF9"/>
<path d="M464.556 121.576C461.617 125.763 459.66 137.69 465.863 139.812C472.065 141.935 476.756 129.665 474.576 123.277C472.396 116.89 466.519 118.777 464.556 121.576Z" fill="#99ADF9"/>
<path opacity="0.44" d="M469.018 24.7946C464.39 26.9746 456.76 36.3448 461.095 41.2721C465.429 46.1995 475.583 37.8746 476.865 31.2518C478.146 24.6289 472.109 23.3413 469.018 24.7946Z" fill="#99ADF9"/>
<path opacity="0.44" d="M33.8572 398.756C29.8541 395.568 18.0808 392.859 15.5693 398.921C13.0579 404.983 25.016 410.395 31.5051 408.648C37.9941 406.902 36.5217 400.885 33.8572 398.756Z" fill="#99ADF9"/>
<g style="mix-blend-mode:multiply" opacity="0.64">
<path d="M68.4251 329.569C61.305 330.908 62.4524 337.275 64.7344 343.044C67.0164 348.813 75.048 350.457 80.7147 345.186C77.0368 336.434 68.4251 329.569 68.4251 329.569Z" fill="#99ADF9"/>
</g>
<g style="mix-blend-mode:multiply" opacity="0.64">
<path d="M27.4957 319.963C22.3963 320.53 18.2403 327.912 21.8354 333.897C25.4305 339.883 32.2829 344.243 36.203 342.611C40.1232 340.979 40.7798 332.157 37.9496 326.496C35.1194 320.836 32.3976 319.415 27.4957 319.963Z" fill="#99ADF9"/>
</g>
<g style="mix-blend-mode:multiply" opacity="0.64">
<path d="M429.931 79.8685C427.132 80.7609 424.296 83.7887 424.544 87.0587C424.793 90.3287 427.649 93.1844 430.746 92.7955C433.844 92.4067 436.483 87.4029 435.846 83.8078C435.208 80.2127 432.066 79.1928 429.931 79.8685Z" fill="#99ADF9"/>
</g>
<g style="mix-blend-mode:multiply" opacity="0.64">
<path d="M400.297 86.2428C400.297 86.2428 404.121 90.0674 403.484 94.4082C402.846 98.7491 396.255 98.3476 396.255 98.3476C396.255 98.3476 397.237 90.947 400.297 86.2428Z" fill="#99ADF9"/>
</g>
</svg>
