<svg width="153" height="33" viewBox="0 0 153 33" fill="none" xmlns="http://www.w3.org/2000/svg">
<rect x="96" y="3" width="57" height="29" rx="5" fill="#FFA31A"/>
<path d="M107.308 26.36C108.756 26.36 109.98 26.008 110.98 25.304C111.98 24.592 112.68 23.576 113.08 22.256L110.128 21.596C109.904 22.26 109.568 22.768 109.12 23.12C108.68 23.472 108.076 23.648 107.308 23.648C106.22 23.648 105.4 23.268 104.848 22.508C104.304 21.748 104.028 20.752 104.02 19.52C104.028 18.328 104.292 17.344 104.812 16.568C105.34 15.784 106.172 15.392 107.308 15.392C107.972 15.392 108.564 15.588 109.084 15.98C109.604 16.364 109.976 16.904 110.2 17.6L113.08 16.82C112.776 15.54 112.112 14.532 111.088 13.796C110.064 13.052 108.816 12.68 107.344 12.68C106.032 12.68 104.9 12.976 103.948 13.568C102.996 14.152 102.26 14.96 101.74 15.992C101.228 17.016 100.968 18.192 100.96 19.52C100.968 20.824 101.22 21.992 101.716 23.024C102.22 24.056 102.944 24.872 103.888 25.472C104.832 26.064 105.972 26.36 107.308 26.36ZM119.657 26.36C120.953 26.36 122.085 26.072 123.053 25.496C124.021 24.912 124.773 24.108 125.309 23.084C125.853 22.052 126.125 20.864 126.125 19.52C126.125 18.184 125.857 17.004 125.321 15.98C124.785 14.948 124.033 14.14 123.065 13.556C122.097 12.972 120.961 12.68 119.657 12.68C118.385 12.68 117.265 12.968 116.297 13.544C115.329 14.12 114.573 14.92 114.029 15.944C113.485 16.968 113.213 18.16 113.213 19.52C113.213 20.856 113.477 22.04 114.005 23.072C114.541 24.096 115.293 24.9 116.261 25.484C117.229 26.068 118.361 26.36 119.657 26.36ZM119.657 23.648C118.545 23.648 117.701 23.276 117.125 22.532C116.557 21.78 116.273 20.776 116.273 19.52C116.273 18.296 116.545 17.304 117.089 16.544C117.641 15.776 118.497 15.392 119.657 15.392C120.793 15.392 121.645 15.768 122.213 16.52C122.781 17.264 123.065 18.264 123.065 19.52C123.065 20.736 122.781 21.728 122.213 22.496C121.653 23.264 120.801 23.648 119.657 23.648ZM127.569 26H130.473V19.412C130.473 18.66 130.609 17.992 130.881 17.408C131.161 16.824 131.597 16.372 132.189 16.052C132.589 15.82 133.037 15.684 133.533 15.644C134.029 15.596 134.473 15.628 134.865 15.74V13.04C134.281 12.952 133.681 12.964 133.065 13.076C132.449 13.18 131.901 13.396 131.421 13.724C131.149 13.892 130.905 14.096 130.689 14.336C130.473 14.568 130.285 14.828 130.125 15.116V13.04H127.569V26ZM140.917 26.36C141.685 26.36 142.377 26.244 142.993 26.012C143.609 25.78 144.149 25.456 144.613 25.04V26H147.169V8.72H144.253V13.676C143.821 13.356 143.337 13.112 142.801 12.944C142.265 12.768 141.673 12.68 141.025 12.68C139.801 12.68 138.737 12.976 137.833 13.568C136.937 14.16 136.241 14.972 135.745 16.004C135.249 17.036 135.001 18.208 135.001 19.52C135.001 20.816 135.245 21.98 135.733 23.012C136.221 24.044 136.909 24.86 137.797 25.46C138.685 26.06 139.725 26.36 140.917 26.36ZM141.361 23.768C140.609 23.768 139.989 23.58 139.501 23.204C139.013 22.82 138.649 22.308 138.409 21.668C138.177 21.028 138.061 20.312 138.061 19.52C138.061 18.736 138.181 18.024 138.421 17.384C138.669 16.736 139.041 16.224 139.537 15.848C140.041 15.464 140.681 15.272 141.457 15.272C142.561 15.272 143.361 15.664 143.857 16.448C144.361 17.232 144.613 18.256 144.613 19.52C144.613 20.776 144.361 21.8 143.857 22.592C143.361 23.376 142.529 23.768 141.361 23.768Z" fill="#34343A"/>
<path d="M1.656 31.76H4.572V25.34C5.012 25.66 5.508 25.908 6.06 26.084C6.62 26.268 7.236 26.36 7.908 26.36C9.108 26.36 10.148 26.06 11.028 25.46C11.916 24.86 12.604 24.044 13.092 23.012C13.58 21.98 13.824 20.816 13.824 19.52C13.824 18.208 13.576 17.036 13.08 16.004C12.592 14.972 11.896 14.16 10.992 13.568C10.088 12.976 9.024 12.68 7.8 12.68C7.064 12.68 6.396 12.792 5.796 13.016C5.196 13.24 4.668 13.56 4.212 13.976V13.04H1.656V31.76ZM7.464 23.768C6.304 23.768 5.472 23.376 4.968 22.592C4.464 21.8 4.212 20.776 4.212 19.52C4.212 18.256 4.46 17.232 4.956 16.448C5.46 15.664 6.264 15.272 7.368 15.272C8.144 15.272 8.78 15.464 9.276 15.848C9.78 16.224 10.152 16.736 10.392 17.384C10.64 18.024 10.764 18.736 10.764 19.52C10.764 20.312 10.644 21.028 10.404 21.668C10.172 22.308 9.812 22.82 9.324 23.204C8.836 23.58 8.216 23.768 7.464 23.768ZM15.5091 26H18.4011V8.36H15.5091V26ZM26.6876 26.36C27.9356 26.36 29.0756 26.04 30.1076 25.4C31.1476 24.752 31.9156 23.84 32.4116 22.664L29.5556 21.8C28.9796 23.032 27.9676 23.648 26.5196 23.648C25.5356 23.648 24.7596 23.364 24.1916 22.796C23.6236 22.22 23.2836 21.396 23.1716 20.324H32.5556C32.6676 18.764 32.4956 17.412 32.0396 16.268C31.5836 15.124 30.8836 14.24 29.9396 13.616C29.0036 12.992 27.8636 12.68 26.5196 12.68C25.2476 12.68 24.1276 12.968 23.1596 13.544C22.1916 14.112 21.4356 14.92 20.8916 15.968C20.3476 17.016 20.0756 18.248 20.0756 19.664C20.0756 20.976 20.3516 22.136 20.9036 23.144C21.4636 24.152 22.2396 24.94 23.2316 25.508C24.2236 26.076 25.3756 26.36 26.6876 26.36ZM26.6396 15.212C27.5356 15.212 28.2236 15.448 28.7036 15.92C29.1916 16.384 29.4996 17.124 29.6276 18.14H23.2436C23.5876 16.188 24.7196 15.212 26.6396 15.212ZM37.4228 26.36C38.4548 26.36 39.3308 26.192 40.0508 25.856C40.7788 25.512 41.4188 24.98 41.9708 24.26V26H44.5028V18.044C44.5028 17.484 44.4788 16.968 44.4308 16.496C44.3828 16.016 44.2428 15.548 44.0108 15.092C43.5868 14.236 42.9348 13.62 42.0548 13.244C41.1828 12.868 40.1708 12.68 39.0188 12.68C37.4988 12.68 36.2868 13.012 35.3828 13.676C34.4788 14.34 33.8668 15.22 33.5468 16.316L36.1868 17.144C36.4028 16.48 36.7828 16.012 37.3268 15.74C37.8708 15.468 38.4348 15.332 39.0188 15.332C39.8988 15.332 40.5468 15.512 40.9628 15.872C41.3788 16.224 41.6148 16.772 41.6708 17.516C40.5348 17.684 39.4788 17.848 38.5028 18.008C37.5348 18.16 36.7108 18.348 36.0308 18.572C35.0068 18.924 34.2588 19.424 33.7868 20.072C33.3148 20.712 33.0788 21.504 33.0788 22.448C33.0788 23.16 33.2428 23.812 33.5708 24.404C33.9068 24.996 34.3988 25.472 35.0468 25.832C35.6948 26.184 36.4868 26.36 37.4228 26.36ZM37.9988 24.056C37.3188 24.056 36.7988 23.9 36.4388 23.588C36.0868 23.276 35.9108 22.884 35.9108 22.412C35.9108 21.988 36.0468 21.644 36.3188 21.38C36.5988 21.116 36.9868 20.892 37.4828 20.708C37.9388 20.556 38.4868 20.424 39.1268 20.312C39.7668 20.192 40.6028 20.052 41.6348 19.892C41.6268 20.196 41.6068 20.536 41.5748 20.912C41.5428 21.28 41.4668 21.612 41.3468 21.908C41.2508 22.204 41.0628 22.52 40.7828 22.856C40.5108 23.192 40.1428 23.476 39.6788 23.708C39.2148 23.94 38.6548 24.056 37.9988 24.056ZM51.4309 26.36C53.1029 26.36 54.4109 25.988 55.3549 25.244C56.3069 24.5 56.7829 23.476 56.7829 22.172C56.7829 21.164 56.4629 20.372 55.8229 19.796C55.1909 19.22 54.0989 18.732 52.5469 18.332C51.5389 18.076 50.7789 17.86 50.2669 17.684C49.7629 17.508 49.4269 17.332 49.2589 17.156C49.0909 16.98 49.0069 16.768 49.0069 16.52C49.0069 16.088 49.2149 15.752 49.6309 15.512C50.0469 15.264 50.5949 15.156 51.2749 15.188C51.9789 15.228 52.5429 15.408 52.9669 15.728C53.3989 16.048 53.6549 16.484 53.7349 17.036L56.6869 16.508C56.5269 15.34 55.9549 14.412 54.9709 13.724C53.9869 13.028 52.7389 12.68 51.2269 12.68C49.6829 12.68 48.4469 13.04 47.5189 13.76C46.5909 14.48 46.1269 15.448 46.1269 16.664C46.1269 17.632 46.4509 18.396 47.0989 18.956C47.7549 19.516 48.8949 20.008 50.5189 20.432C51.4949 20.688 52.2149 20.904 52.6789 21.08C53.1509 21.248 53.4589 21.42 53.6029 21.596C53.7469 21.772 53.8189 22.008 53.8189 22.304C53.8189 22.784 53.6269 23.164 53.2429 23.444C52.8589 23.716 52.3229 23.852 51.6349 23.852C50.8429 23.852 50.1829 23.668 49.6549 23.3C49.1349 22.932 48.8029 22.428 48.6589 21.788L45.7069 22.244C45.9229 23.548 46.5309 24.56 47.5309 25.28C48.5309 26 49.8309 26.36 51.4309 26.36ZM61.8353 26.36C62.8673 26.36 63.7433 26.192 64.4633 25.856C65.1913 25.512 65.8313 24.98 66.3833 24.26V26H68.9153V18.044C68.9153 17.484 68.8913 16.968 68.8433 16.496C68.7953 16.016 68.6553 15.548 68.4233 15.092C67.9993 14.236 67.3473 13.62 66.4673 13.244C65.5953 12.868 64.5833 12.68 63.4313 12.68C61.9113 12.68 60.6993 13.012 59.7953 13.676C58.8913 14.34 58.2793 15.22 57.9593 16.316L60.5993 17.144C60.8153 16.48 61.1953 16.012 61.7393 15.74C62.2833 15.468 62.8473 15.332 63.4313 15.332C64.3113 15.332 64.9593 15.512 65.3753 15.872C65.7913 16.224 66.0273 16.772 66.0833 17.516C64.9473 17.684 63.8913 17.848 62.9153 18.008C61.9473 18.16 61.1233 18.348 60.4433 18.572C59.4193 18.924 58.6713 19.424 58.1993 20.072C57.7273 20.712 57.4913 21.504 57.4913 22.448C57.4913 23.16 57.6553 23.812 57.9833 24.404C58.3193 24.996 58.8113 25.472 59.4593 25.832C60.1073 26.184 60.8993 26.36 61.8353 26.36ZM62.4113 24.056C61.7313 24.056 61.2113 23.9 60.8513 23.588C60.4993 23.276 60.3233 22.884 60.3233 22.412C60.3233 21.988 60.4593 21.644 60.7313 21.38C61.0113 21.116 61.3993 20.892 61.8953 20.708C62.3513 20.556 62.8993 20.424 63.5393 20.312C64.1793 20.192 65.0153 20.052 66.0473 19.892C66.0393 20.196 66.0193 20.536 65.9873 20.912C65.9553 21.28 65.8793 21.612 65.7593 21.908C65.6633 22.204 65.4753 22.52 65.1953 22.856C64.9233 23.192 64.5553 23.476 64.0913 23.708C63.6273 23.94 63.0673 24.056 62.4113 24.056ZM70.8154 26H73.7434V19.34C73.7434 18.292 73.8914 17.484 74.1874 16.916C74.4914 16.34 74.8754 15.944 75.3394 15.728C75.8114 15.504 76.2914 15.392 76.7794 15.392C77.4674 15.392 78.0154 15.544 78.4234 15.848C78.8314 16.144 79.1314 16.524 79.3234 16.988C79.5234 17.444 79.6514 17.92 79.7074 18.416C79.7714 18.912 79.8034 19.36 79.8034 19.76V26H82.7314V18.764C82.7314 18.46 82.7034 18.056 82.6474 17.552C82.5994 17.048 82.4874 16.516 82.3114 15.956C82.1354 15.396 81.8634 14.868 81.4954 14.372C81.1274 13.868 80.6274 13.46 79.9954 13.148C79.3714 12.828 78.5834 12.668 77.6314 12.668C76.6954 12.668 75.8714 12.832 75.1594 13.16C74.4554 13.48 73.8674 13.92 73.3954 14.48V13.04H70.8154V26ZM92.2588 26V23.576C91.4508 23.696 90.7308 23.728 90.0988 23.672C89.4668 23.616 89.0068 23.348 88.7188 22.868C88.5668 22.62 88.4828 22.3 88.4668 21.908C88.4588 21.508 88.4548 21.052 88.4548 20.54V15.308H92.2588V13.04H88.4548V9.44H85.5748V13.04H83.2228V15.308H85.5748V20.708C85.5748 21.452 85.5828 22.116 85.5988 22.7C85.6148 23.276 85.7708 23.844 86.0668 24.404C86.4028 25.02 86.8948 25.472 87.5428 25.76C88.1908 26.04 88.9228 26.188 89.7388 26.204C90.5628 26.228 91.4028 26.16 92.2588 26Z" fill="#EDEDEF"/>
</svg>
