<svg width="196" height="196" viewBox="0 0 196 196" fill="none" xmlns="http://www.w3.org/2000/svg">
<rect width="196" height="196" rx="25" fill="#292929"/>
<rect x="91" y="55" width="84" height="84" rx="15" fill="#3B82F6"/>
<path d="M134.232 125.44C140.024 125.44 144.92 124.032 148.92 121.216C152.92 118.368 155.72 114.304 157.32 109.024L145.512 106.384C144.616 109.04 143.272 111.072 141.48 112.48C139.72 113.888 137.304 114.592 134.232 114.592C129.88 114.592 126.6 113.072 124.392 110.032C122.216 106.992 121.112 103.008 121.08 98.08C121.112 93.312 122.168 89.376 124.248 86.272C126.36 83.136 129.688 81.568 134.232 81.568C136.888 81.568 139.256 82.352 141.336 83.92C143.416 85.456 144.904 87.616 145.8 90.4L157.32 87.28C156.104 82.16 153.448 78.128 149.352 75.184C145.256 72.208 140.264 70.72 134.376 70.72C129.128 70.72 124.6 71.904 120.792 74.272C116.984 76.608 114.04 79.84 111.96 83.968C109.912 88.064 108.872 92.768 108.84 98.08C108.872 103.296 109.88 107.968 111.864 112.096C113.88 116.224 116.776 119.488 120.552 121.888C124.328 124.256 128.888 125.44 134.232 125.44Z" fill="#292929"/>
<path d="M32.624 147.04H44.288V121.36C46.048 122.64 48.032 123.632 50.24 124.336C52.48 125.072 54.944 125.44 57.632 125.44C62.432 125.44 66.592 124.24 70.112 121.84C73.664 119.44 76.416 116.176 78.368 112.048C80.32 107.92 81.296 103.264 81.296 98.08C81.296 92.832 80.304 88.144 78.32 84.016C76.368 79.888 73.584 76.64 69.968 74.272C66.352 71.904 62.096 70.72 57.2 70.72C54.256 70.72 51.584 71.168 49.184 72.064C46.784 72.96 44.672 74.24 42.848 75.904V72.16H32.624V147.04ZM55.856 115.072C51.216 115.072 47.888 113.504 45.872 110.368C43.856 107.2 42.848 103.104 42.848 98.08C42.848 93.024 43.84 88.928 45.824 85.792C47.84 82.656 51.056 81.088 55.472 81.088C58.576 81.088 61.12 81.856 63.104 83.392C65.12 84.896 66.608 86.944 67.568 89.536C68.56 92.096 69.056 94.944 69.056 98.08C69.056 101.248 68.576 104.112 67.616 106.672C66.688 109.232 65.248 111.28 63.296 112.816C61.344 114.32 58.864 115.072 55.856 115.072Z" fill="white"/>
</svg>
